<svg width="1440" height="164" viewBox="0 0 1440 164" fill="none" xmlns="http://www.w3.org/2000/svg">
<rect width="1440" height="164" fill="#E1CDFD"/>
<mask id="mask0_1_442" style="mask-type:alpha" maskUnits="userSpaceOnUse" x="0" y="0" width="1440" height="164">
<rect width="1440" height="164" fill="#EDEDED"/>
</mask>
<g mask="url(#mask0_1_442)">
<g filter="url(#filter0_f_1_442)">
<ellipse cx="500" cy="223.5" rx="312" ry="141.5" fill="#903DF7"/>
</g>
<g filter="url(#filter1_f_1_442)">
<ellipse cx="1118.5" cy="201" rx="248.5" ry="180" fill="#E75C49"/>
</g>
</g>
<path d="M181.418 71.1853H171.439V65.6311H180.854V62.0911H171.439V56.781H181.418V52.9816H166.831V75H181.418V71.1853ZM184.363 75H188.819V65.6921C188.819 63.5559 190.055 62.0911 192.069 62.0911C194.099 62.0911 195.09 63.3118 195.09 65.448V75H199.546V64.5172C199.546 60.6873 197.501 58.3984 193.87 58.3984C191.352 58.3984 189.689 59.4971 188.758 61.5875H188.666V58.6426H184.363V75ZM203.559 54.8737V58.6426H201.255V61.9995H203.559V70.575C203.559 73.764 205.054 75.061 208.9 75.061C209.8 75.061 210.563 74.9695 211.021 74.8779V71.5973C210.746 71.6431 210.334 71.6736 209.937 71.6736C208.625 71.6736 208.015 71.0632 208.015 69.812V61.9995H211.036V58.6426H208.015V54.8737H203.559ZM222.236 55.7281L226.249 50.9979H222.083L218.711 55.7281H222.236ZM220.573 61.6486C222.541 61.6486 223.914 63.0219 224.006 65.1123H217.063C217.216 63.0676 218.635 61.6486 220.573 61.6486ZM224.067 69.9951C223.655 71.2311 222.373 71.994 220.771 71.994C218.528 71.994 217.017 70.4224 217.017 68.1183V67.8436H228.293V66.4856C228.293 61.5112 225.272 58.3527 220.527 58.3527C215.705 58.3527 212.638 61.6791 212.638 66.8976C212.638 72.1008 215.69 75.2899 220.695 75.2899C224.708 75.2899 227.668 73.1842 228.156 69.9951H224.067ZM230.598 75H235.053V65.921C235.053 63.6169 236.335 62.2742 238.532 62.2742C239.173 62.2742 239.783 62.381 240.15 62.5336V58.6121C239.829 58.5052 239.402 58.4442 238.883 58.4442C236.96 58.4442 235.557 59.5581 234.992 61.5875H234.901V58.6426H230.598V75ZM247.901 72.0093C246.36 72.0093 245.353 71.2311 245.353 70.0409C245.353 68.8812 246.299 68.1641 248.069 68.042L251.441 67.8284V69.0033C251.441 70.7581 249.869 72.0093 247.901 72.0093ZM246.436 75.2441C248.511 75.2441 250.526 74.2065 251.426 72.4976H251.517V75H255.82V63.7848C255.82 60.5194 253.043 58.3527 248.832 58.3527C244.681 58.3527 241.859 60.5042 241.736 63.6627H245.795C245.994 62.4878 247.092 61.6791 248.633 61.6791C250.373 61.6791 251.441 62.5183 251.441 64.0594V65.1276L247.397 65.3717C243.201 65.6158 240.912 67.3096 240.912 70.285C240.912 73.2147 243.293 75.2441 246.436 75.2441ZM259.894 54.8737V58.6426H257.59V61.9995H259.894V70.575C259.894 73.764 261.39 75.061 265.235 75.061C266.135 75.061 266.898 74.9695 267.356 74.8779V71.5973C267.081 71.6431 266.669 71.6736 266.273 71.6736C264.96 71.6736 264.35 71.0632 264.35 69.812V61.9995H267.371V58.6426H264.35V54.8737H259.894ZM276.908 61.6486C278.876 61.6486 280.25 63.0219 280.341 65.1123H273.398C273.551 63.0676 274.97 61.6486 276.908 61.6486ZM280.402 69.9951C279.99 71.2311 278.708 71.994 277.106 71.994C274.863 71.994 273.353 70.4224 273.353 68.1183V67.8436H284.629V66.4856C284.629 61.5112 281.608 58.3527 276.862 58.3527C272.04 58.3527 268.973 61.6791 268.973 66.8976C268.973 72.1008 272.025 75.2899 277.03 75.2899C281.043 75.2899 284.003 73.1842 284.492 69.9951H280.402ZM299.201 75.1984C301.612 75.1984 303.504 73.9929 304.297 72.1924H304.374V75H308.768V52.9816H304.313V61.4502H304.221C303.412 59.6344 301.597 58.4442 299.232 58.4442C295.157 58.4442 292.533 61.6638 292.533 66.7908C292.533 71.9635 295.142 75.1984 299.201 75.1984ZM300.712 62.03C302.924 62.03 304.343 63.9069 304.343 66.8213C304.343 69.751 302.924 71.6125 300.712 71.6125C298.499 71.6125 297.095 69.7662 297.095 66.8213C297.095 63.8916 298.499 62.03 300.712 62.03ZM319.083 61.6486C321.052 61.6486 322.425 63.0219 322.516 65.1123H315.574C315.726 63.0676 317.145 61.6486 319.083 61.6486ZM322.578 69.9951C322.166 71.2311 320.884 71.994 319.282 71.994C317.039 71.994 315.528 70.4224 315.528 68.1183V67.8436H326.804V66.4856C326.804 61.5112 323.783 58.3527 319.037 58.3527C314.216 58.3527 311.149 61.6791 311.149 66.8976C311.149 72.1008 314.2 75.2899 319.205 75.2899C323.218 75.2899 326.179 73.1842 326.667 69.9951H322.578ZM329.215 75H333.671V52.9816H329.215V75ZM352.119 55.7281L356.132 50.9979H351.966L348.594 55.7281H352.119ZM357.978 58.6426H353.522V67.9504C353.522 70.1172 352.286 71.5363 350.303 71.5363C348.334 71.5363 347.251 70.3766 347.251 68.1946V58.6426H342.795V69.1254C342.795 72.9401 345.145 75.2441 348.685 75.2441C351.157 75.2441 352.759 74.0845 353.583 72.0245H353.675V75H357.978V58.6426ZM360.984 75H365.439V52.9816H360.984V75ZM369.636 54.8737V58.6426H367.332V61.9995H369.636V70.575C369.636 73.764 371.131 75.061 374.976 75.061C375.876 75.061 376.639 74.9695 377.097 74.8779V71.5973C376.823 71.6431 376.411 71.6736 376.014 71.6736C374.702 71.6736 374.091 71.0632 374.091 69.812V61.9995H377.112V58.6426H374.091V54.8737H369.636ZM379.63 75H384.086V58.6426H379.63V75ZM381.858 56.842C383.17 56.842 384.238 55.835 384.238 54.538C384.238 53.2104 383.17 52.2339 381.858 52.2339C380.546 52.2339 379.478 53.2104 379.478 54.538C379.478 55.835 380.546 56.842 381.858 56.842ZM387.061 75H391.517V65.1886C391.517 63.3575 392.661 62.0758 394.355 62.0758C396.003 62.0758 396.995 63.1134 396.995 64.8682V75H401.282V65.1276C401.282 63.3118 402.396 62.0758 404.09 62.0758C405.814 62.0758 406.76 63.1134 406.76 65.0055V75H411.216V63.8916C411.216 60.5957 409.064 58.3984 405.86 58.3984C403.464 58.3984 401.511 59.6954 400.779 61.7554H400.687C400.138 59.6191 398.49 58.3984 396.125 58.3984C393.943 58.3984 392.142 59.6497 391.456 61.6333H391.364V58.6426H387.061V75ZM421.546 75.2899C426.536 75.2899 429.648 72.1313 429.648 66.806C429.648 61.557 426.49 58.3527 421.546 58.3527C416.602 58.3527 413.444 61.5723 413.444 66.806C413.444 72.1161 416.556 75.2899 421.546 75.2899ZM421.546 71.8872C419.303 71.8872 417.96 70.0409 417.96 66.8213C417.96 63.6475 419.318 61.7554 421.546 61.7554C423.774 61.7554 425.117 63.6322 425.117 66.8213C425.117 70.0409 423.774 71.8872 421.546 71.8872ZM438.148 75H442.603V65.921C442.603 63.6169 443.885 62.2742 446.082 62.2742C446.723 62.2742 447.333 62.381 447.7 62.5336V58.6121C447.379 58.5052 446.952 58.4442 446.433 58.4442C444.51 58.4442 443.107 59.5581 442.542 61.5875H442.451V58.6426H438.148V75ZM456.321 61.6486C458.289 61.6486 459.662 63.0219 459.754 65.1123H452.811C452.964 63.0676 454.383 61.6486 456.321 61.6486ZM459.815 69.9951C459.403 71.2311 458.121 71.994 456.519 71.994C454.276 71.994 452.766 70.4224 452.766 68.1183V67.8436H464.042V66.4856C464.042 61.5112 461.021 58.3527 456.275 58.3527C451.453 58.3527 448.386 61.6791 448.386 66.8976C448.386 72.1008 451.438 75.2899 456.443 75.2899C460.456 75.2899 463.416 73.1842 463.904 69.9951H459.815ZM481.208 64.7308C481.01 61.0382 478.187 58.3527 473.762 58.3527C468.879 58.3527 465.751 61.618 465.751 66.806C465.751 72.0856 468.879 75.2899 473.792 75.2899C478.126 75.2899 480.979 72.8485 481.223 69.0033H477.073C476.813 70.7886 475.638 71.7957 473.838 71.7957C471.641 71.7957 470.267 69.9646 470.267 66.806C470.267 63.7085 471.641 61.8469 473.823 61.8469C475.669 61.8469 476.844 63.0219 477.073 64.7308H481.208ZM490.882 75.2899C495.872 75.2899 498.984 72.1313 498.984 66.806C498.984 61.557 495.826 58.3527 490.882 58.3527C485.938 58.3527 482.78 61.5723 482.78 66.806C482.78 72.1161 485.892 75.2899 490.882 75.2899ZM490.882 71.8872C488.639 71.8872 487.296 70.0409 487.296 66.8213C487.296 63.6475 488.654 61.7554 490.882 61.7554C493.11 61.7554 494.453 63.6322 494.453 66.8213C494.453 70.0409 493.11 71.8872 490.882 71.8872ZM501.288 75H505.744V65.921C505.744 63.6169 507.026 62.2742 509.223 62.2742C509.864 62.2742 510.474 62.381 510.84 62.5336V58.6121C510.52 58.5052 510.093 58.4442 509.574 58.4442C507.651 58.4442 506.248 59.5581 505.683 61.5875H505.591V58.6426H501.288V75ZM512.672 75H517.127V65.921C517.127 63.6169 518.409 62.2742 520.606 62.2742C521.247 62.2742 521.857 62.381 522.224 62.5336V58.6121C521.903 58.5052 521.476 58.4442 520.957 58.4442C519.034 58.4442 517.631 59.5581 517.066 61.5875H516.974V58.6426H512.672V75ZM524.131 75H528.586V58.6426H524.131V75ZM526.359 56.842C527.671 56.842 528.739 55.835 528.739 54.538C528.739 53.2104 527.671 52.2339 526.359 52.2339C525.046 52.2339 523.978 53.2104 523.978 54.538C523.978 55.835 525.046 56.842 526.359 56.842ZM537.635 75.1984C540.046 75.1984 541.938 73.9929 542.731 72.1924H542.808V75H547.202V52.9816H542.747V61.4502H542.655C541.846 59.6344 540.031 58.4442 537.665 58.4442C533.591 58.4442 530.967 61.6638 530.967 66.7908C530.967 71.9635 533.576 75.1984 537.635 75.1984ZM539.146 62.03C541.358 62.03 542.777 63.9069 542.777 66.8213C542.777 69.751 541.358 71.6125 539.146 71.6125C536.933 71.6125 535.529 69.7662 535.529 66.8213C535.529 63.8916 536.933 62.03 539.146 62.03ZM557.685 75.2899C562.675 75.2899 565.787 72.1313 565.787 66.806C565.787 61.557 562.629 58.3527 557.685 58.3527C552.741 58.3527 549.583 61.5723 549.583 66.806C549.583 72.1161 552.695 75.2899 557.685 75.2899ZM557.685 71.8872C555.442 71.8872 554.099 70.0409 554.099 66.8213C554.099 63.6475 555.457 61.7554 557.685 61.7554C559.913 61.7554 561.255 63.6322 561.255 66.8213C561.255 70.0409 559.913 71.8872 557.685 71.8872ZM580.359 75.1984C582.77 75.1984 584.662 73.9929 585.456 72.1924H585.532V75H589.927V52.9816H585.471V61.4502H585.38C584.571 59.6344 582.755 58.4442 580.39 58.4442C576.316 58.4442 573.691 61.6638 573.691 66.7908C573.691 71.9635 576.301 75.1984 580.359 75.1984ZM581.87 62.03C584.083 62.03 585.502 63.9069 585.502 66.8213C585.502 69.751 584.083 71.6125 581.87 71.6125C579.658 71.6125 578.254 69.7662 578.254 66.8213C578.254 63.8916 579.658 62.03 581.87 62.03ZM600.242 61.6486C602.21 61.6486 603.583 63.0219 603.675 65.1123H596.732C596.885 63.0676 598.304 61.6486 600.242 61.6486ZM603.736 69.9951C603.324 71.2311 602.042 71.994 600.44 71.994C598.197 71.994 596.686 70.4224 596.686 68.1183V67.8436H607.963V66.4856C607.963 61.5112 604.941 58.3527 600.196 58.3527C595.374 58.3527 592.307 61.6791 592.307 66.8976C592.307 72.1008 595.359 75.2899 600.364 75.2899C604.377 75.2899 607.337 73.1842 607.825 69.9951H603.736ZM616.569 75H621.024V52.9816H616.569V75ZM630.347 72.0093C628.806 72.0093 627.799 71.2311 627.799 70.0409C627.799 68.8812 628.745 68.1641 630.515 68.042L633.887 67.8284V69.0033C633.887 70.7581 632.316 72.0093 630.347 72.0093ZM628.882 75.2441C630.958 75.2441 632.972 74.2065 633.872 72.4976H633.964V75H638.267V63.7848C638.267 60.5194 635.49 58.3527 631.278 58.3527C627.128 58.3527 624.305 60.5042 624.183 63.6627H628.242C628.44 62.4878 629.539 61.6791 631.08 61.6791C632.819 61.6791 633.887 62.5183 633.887 64.0594V65.1276L629.844 65.3717C625.648 65.6158 623.359 67.3096 623.359 70.285C623.359 73.2147 625.739 75.2441 628.882 75.2441ZM190.146 112V89.9816H184.806L178.55 105.591H178.428L172.172 89.9816H166.831V112H170.936V97.1379H171.058L177.039 111.786H179.938L185.92 97.1379H186.042V112H190.146ZM200.767 98.6486C202.735 98.6486 204.108 100.022 204.2 102.112H197.257C197.41 100.068 198.829 98.6486 200.767 98.6486ZM204.261 106.995C203.849 108.231 202.567 108.994 200.965 108.994C198.722 108.994 197.211 107.422 197.211 105.118V104.844H208.488V103.486C208.488 98.5112 205.466 95.3527 200.721 95.3527C195.899 95.3527 192.832 98.6791 192.832 103.898C192.832 109.101 195.884 112.29 200.889 112.29C204.902 112.29 207.862 110.184 208.35 106.995H204.261ZM211.982 91.8737V95.6426H209.678V98.9995H211.982V107.575C211.982 110.764 213.477 112.061 217.322 112.061C218.223 112.061 218.986 111.969 219.443 111.878V108.597C219.169 108.643 218.757 108.674 218.36 108.674C217.048 108.674 216.437 108.063 216.437 106.812V98.9995H219.459V95.6426H216.437V91.8737H211.982ZM228.995 98.6486C230.964 98.6486 232.337 100.022 232.429 102.112H225.486C225.638 100.068 227.057 98.6486 228.995 98.6486ZM232.49 106.995C232.078 108.231 230.796 108.994 229.194 108.994C226.951 108.994 225.44 107.422 225.44 105.118V104.844H236.716V103.486C236.716 98.5112 233.695 95.3527 228.95 95.3527C224.128 95.3527 221.061 98.6791 221.061 103.898C221.061 109.101 224.113 112.29 229.117 112.29C233.13 112.29 236.091 110.184 236.579 106.995H232.49ZM246.528 112.29C251.517 112.29 254.63 109.131 254.63 103.806C254.63 98.557 251.472 95.3527 246.528 95.3527C241.584 95.3527 238.425 98.5723 238.425 103.806C238.425 109.116 241.538 112.29 246.528 112.29ZM246.528 108.887C244.285 108.887 242.942 107.041 242.942 103.821C242.942 100.647 244.3 98.7554 246.528 98.7554C248.755 98.7554 250.098 100.632 250.098 103.821C250.098 107.041 248.755 108.887 246.528 108.887ZM256.934 112H261.39V102.921C261.39 100.617 262.672 99.2742 264.869 99.2742C265.51 99.2742 266.12 99.381 266.486 99.5336V95.6121C266.166 95.5052 265.739 95.4442 265.22 95.4442C263.297 95.4442 261.893 96.5581 261.329 98.5875H261.237V95.6426H256.934V112ZM279.975 102.387H282.691C285.178 102.387 286.689 103.608 286.689 105.622C286.689 107.483 285.071 108.78 282.767 108.78C280.341 108.78 278.815 107.56 278.678 105.698H274.268C274.482 109.757 277.732 112.488 282.706 112.488C287.787 112.488 291.373 109.864 291.373 105.912C291.373 102.86 289.252 100.876 285.972 100.602V100.51C288.672 100.022 290.519 98.0687 290.519 95.3679C290.519 91.8431 287.391 89.4933 282.813 89.4933C278.037 89.4933 274.863 92.1483 274.695 96.2224H278.937C279.059 94.2998 280.479 93.0333 282.615 93.0333C284.904 93.0333 286.17 94.2083 286.17 95.9935C286.17 97.8093 284.751 99.0605 282.645 99.0605H279.975V102.387ZM302.772 112.488C307.822 112.488 311.271 109.314 311.271 104.645C311.271 100.358 308.25 97.26 304.038 97.26C301.795 97.26 300.04 98.1908 299.14 99.6709H299.048L299.552 93.6437H309.943V89.9816H295.936L294.852 102.646H298.972C299.735 101.38 301.169 100.617 302.833 100.617C305.213 100.617 306.876 102.326 306.876 104.767C306.876 107.163 305.213 108.841 302.802 108.841C300.666 108.841 299.018 107.56 298.759 105.698H294.501C294.639 109.681 298.041 112.488 302.772 112.488ZM322.455 112.488C327.994 112.488 331.351 108.048 331.351 100.937C331.351 93.8268 327.964 89.478 322.455 89.478C316.947 89.478 313.544 93.842 313.544 100.953C313.544 108.078 316.917 112.488 322.455 112.488ZM322.455 108.796C319.831 108.796 318.229 105.958 318.229 100.953C318.229 95.9935 319.861 93.1707 322.455 93.1707C325.065 93.1707 326.667 95.9783 326.667 100.953C326.667 105.973 325.08 108.796 322.455 108.796ZM349.83 95.4442C347.526 95.4442 345.634 96.5886 344.764 98.4502H344.672V95.6426H340.278V117.341H344.733V109.253H344.825C345.71 111.1 347.526 112.198 349.906 112.198C353.995 112.198 356.528 109.025 356.528 103.821C356.528 98.6028 353.98 95.4442 349.83 95.4442ZM348.334 108.613C346.152 108.613 344.718 106.72 344.718 103.821C344.718 100.953 346.168 99.03 348.334 99.03C350.532 99.03 351.966 100.922 351.966 103.821C351.966 106.736 350.532 108.613 348.334 108.613ZM366.34 112.29C371.329 112.29 374.442 109.131 374.442 103.806C374.442 98.557 371.284 95.3527 366.34 95.3527C361.396 95.3527 358.237 98.5723 358.237 103.806C358.237 109.116 361.35 112.29 366.34 112.29ZM366.34 108.887C364.097 108.887 362.754 107.041 362.754 103.821C362.754 100.647 364.112 98.7554 366.34 98.7554C368.568 98.7554 369.91 100.632 369.91 103.821C369.91 107.041 368.568 108.887 366.34 108.887ZM376.746 112H381.202V102.921C381.202 100.617 382.484 99.2742 384.681 99.2742C385.322 99.2742 385.932 99.381 386.298 99.5336V95.6121C385.978 95.5052 385.551 95.4442 385.032 95.4442C383.109 95.4442 381.705 96.5581 381.141 98.5875H381.049V95.6426H376.746V112ZM394.431 112H398.887V89.9816H394.431V112ZM408.21 109.009C406.669 109.009 405.662 108.231 405.662 107.041C405.662 105.881 406.608 105.164 408.378 105.042L411.75 104.828V106.003C411.75 107.758 410.178 109.009 408.21 109.009ZM406.745 112.244C408.82 112.244 410.834 111.207 411.735 109.498H411.826V112H416.129V100.785C416.129 97.5194 413.352 95.3527 409.141 95.3527C404.99 95.3527 402.167 97.5042 402.045 100.663H406.104C406.302 99.4878 407.401 98.6791 408.942 98.6791C410.682 98.6791 411.75 99.5183 411.75 101.059V102.128L407.706 102.372C403.51 102.616 401.221 104.31 401.221 107.285C401.221 110.215 403.602 112.244 406.745 112.244ZM418.738 100.48C418.738 102.875 420.325 104.477 423.423 105.179L426.444 105.851C427.909 106.202 428.458 106.644 428.458 107.453C428.458 108.506 427.421 109.162 425.742 109.162C423.972 109.162 422.874 108.384 422.675 107.026H418.326C418.555 110.199 421.256 112.29 425.62 112.29C429.938 112.29 432.899 110.184 432.899 106.98C432.899 104.554 431.571 103.272 428.29 102.54L425.162 101.868C423.728 101.532 423.026 100.998 423.026 100.205C423.026 99.1674 424.048 98.4807 425.574 98.4807C427.222 98.4807 428.29 99.2894 428.367 100.571H432.471C432.426 97.4126 429.725 95.3527 425.635 95.3527C421.439 95.3527 418.738 97.3821 418.738 100.48ZM441.047 100.48C441.047 102.875 442.634 104.477 445.731 105.179L448.752 105.851C450.217 106.202 450.767 106.644 450.767 107.453C450.767 108.506 449.729 109.162 448.051 109.162C446.281 109.162 445.182 108.384 444.984 107.026H440.635C440.864 110.199 443.564 112.29 447.928 112.29C452.247 112.29 455.207 110.184 455.207 106.98C455.207 104.554 453.879 103.272 450.599 102.54L447.471 101.868C446.036 101.532 445.334 100.998 445.334 100.205C445.334 99.1674 446.357 98.4807 447.883 98.4807C449.531 98.4807 450.599 99.2894 450.675 100.571H454.78C454.734 97.4126 452.033 95.3527 447.944 95.3527C443.748 95.3527 441.047 97.3821 441.047 100.48ZM457.511 112H461.967V95.6426H457.511V112ZM459.739 93.842C461.051 93.842 462.119 92.835 462.119 91.538C462.119 90.2104 461.051 89.2339 459.739 89.2339C458.427 89.2339 457.358 90.2104 457.358 91.538C457.358 92.835 458.427 93.842 459.739 93.842ZM472.281 98.6486C474.25 98.6486 475.623 100.022 475.715 102.112H468.772C468.925 100.068 470.344 98.6486 472.281 98.6486ZM475.776 106.995C475.364 108.231 474.082 108.994 472.48 108.994C470.237 108.994 468.726 107.422 468.726 105.118V104.844H480.002V103.486C480.002 98.5112 476.981 95.3527 472.236 95.3527C467.414 95.3527 464.347 98.6791 464.347 103.898C464.347 109.101 467.399 112.29 472.404 112.29C476.417 112.29 479.377 110.184 479.865 106.995H475.776ZM482.307 112H486.762V102.921C486.762 100.617 488.044 99.2742 490.241 99.2742C490.882 99.2742 491.492 99.381 491.859 99.5336V95.6121C491.538 95.5052 491.111 95.4442 490.592 95.4442C488.669 95.4442 487.266 96.5581 486.701 98.5875H486.609V95.6426H482.307V112ZM493.69 112H498.145V102.921C498.145 100.617 499.427 99.2742 501.624 99.2742C502.265 99.2742 502.875 99.381 503.242 99.5336V95.6121C502.921 95.5052 502.494 95.4442 501.975 95.4442C500.052 95.4442 498.649 96.5581 498.084 98.5875H497.993V95.6426H493.69V112ZM510.993 109.009C509.452 109.009 508.445 108.231 508.445 107.041C508.445 105.881 509.391 105.164 511.161 105.042L514.533 104.828V106.003C514.533 107.758 512.961 109.009 510.993 109.009ZM509.528 112.244C511.603 112.244 513.618 111.207 514.518 109.498H514.609V112H518.912V100.785C518.912 97.5194 516.135 95.3527 511.924 95.3527C507.773 95.3527 504.951 97.5042 504.828 100.663H508.887C509.086 99.4878 510.184 98.6791 511.725 98.6791C513.465 98.6791 514.533 99.5183 514.533 101.059V102.128L510.49 102.372C506.293 102.616 504.005 104.31 504.005 107.285C504.005 110.215 506.385 112.244 509.528 112.244ZM521.522 100.48C521.522 102.875 523.109 104.477 526.206 105.179L529.227 105.851C530.692 106.202 531.241 106.644 531.241 107.453C531.241 108.506 530.204 109.162 528.525 109.162C526.755 109.162 525.657 108.384 525.458 107.026H521.11C521.339 110.199 524.039 112.29 528.403 112.29C532.722 112.29 535.682 110.184 535.682 106.98C535.682 104.554 534.354 103.272 531.074 102.54L527.946 101.868C526.511 101.532 525.809 100.998 525.809 100.205C525.809 99.1674 526.832 98.4807 528.358 98.4807C530.005 98.4807 531.074 99.2894 531.15 100.571H535.255C535.209 97.4126 532.508 95.3527 528.419 95.3527C524.222 95.3527 521.522 97.3821 521.522 100.48ZM550.178 112.198C552.589 112.198 554.481 110.993 555.274 109.192H555.35V112H559.745V89.9816H555.289V98.4502H555.198C554.389 96.6344 552.573 95.4442 550.208 95.4442C546.134 95.4442 543.51 98.6638 543.51 103.791C543.51 108.964 546.119 112.198 550.178 112.198ZM551.688 99.03C553.901 99.03 555.32 100.907 555.32 103.821C555.32 106.751 553.901 108.613 551.688 108.613C549.476 108.613 548.072 106.766 548.072 103.821C548.072 100.892 549.476 99.03 551.688 99.03ZM570.06 98.6486C572.028 98.6486 573.401 100.022 573.493 102.112H566.55C566.703 100.068 568.122 98.6486 570.06 98.6486ZM573.554 106.995C573.142 108.231 571.86 108.994 570.258 108.994C568.015 108.994 566.505 107.422 566.505 105.118V104.844H577.781V103.486C577.781 98.5112 574.76 95.3527 570.014 95.3527C565.192 95.3527 562.125 98.6791 562.125 103.898C562.125 109.101 565.177 112.29 570.182 112.29C574.195 112.29 577.155 110.184 577.643 106.995H573.554ZM596.396 112.381C601.798 112.381 605.567 109.269 606.086 104.355H601.6C601.111 106.965 599.143 108.567 596.412 108.567C592.887 108.567 590.674 105.668 590.674 100.968C590.674 96.3292 592.917 93.4148 596.396 93.4148C599.082 93.4148 601.157 95.1848 601.584 97.8856H606.071C605.72 92.957 601.691 89.6001 596.396 89.6001C590.018 89.6001 585.975 93.8878 585.975 100.983C585.975 108.094 589.988 112.381 596.396 112.381ZM617.774 92.7281L621.787 87.9979H617.621L614.249 92.7281H617.774ZM616.065 112.29C621.055 112.29 624.167 109.131 624.167 103.806C624.167 98.557 621.009 95.3527 616.065 95.3527C611.121 95.3527 607.963 98.5723 607.963 103.806C607.963 109.116 611.075 112.29 616.065 112.29ZM616.065 108.887C613.822 108.887 612.479 107.041 612.479 103.821C612.479 100.647 613.837 98.7554 616.065 98.7554C618.293 98.7554 619.636 100.632 619.636 103.821C619.636 107.041 618.293 108.887 616.065 108.887ZM626.472 112H630.927V102.921C630.927 100.617 632.209 99.2742 634.406 99.2742C635.047 99.2742 635.657 99.381 636.024 99.5336V95.6121C635.703 95.5052 635.276 95.4442 634.757 95.4442C632.834 95.4442 631.431 96.5581 630.866 98.5875H630.775V95.6426H626.472V112ZM643.378 112.198C645.789 112.198 647.681 110.993 648.475 109.192H648.551V112H652.946V89.9816H648.49V98.4502H648.398C647.59 96.6344 645.774 95.4442 643.409 95.4442C639.335 95.4442 636.71 98.6638 636.71 103.791C636.71 108.964 639.319 112.198 643.378 112.198ZM644.889 99.03C647.101 99.03 648.521 100.907 648.521 103.821C648.521 106.751 647.101 108.613 644.889 108.613C642.676 108.613 641.273 106.766 641.273 103.821C641.273 100.892 642.676 99.03 644.889 99.03ZM663.428 112.29C668.418 112.29 671.531 109.131 671.531 103.806C671.531 98.557 668.372 95.3527 663.428 95.3527C658.484 95.3527 655.326 98.5723 655.326 103.806C655.326 109.116 658.439 112.29 663.428 112.29ZM663.428 108.887C661.185 108.887 659.843 107.041 659.843 103.821C659.843 100.647 661.201 98.7554 663.428 98.7554C665.656 98.7554 666.999 100.632 666.999 103.821C666.999 107.041 665.656 108.887 663.428 108.887ZM683.555 112.198C687.675 112.198 690.192 109.025 690.192 103.821C690.192 98.6028 687.659 95.4442 683.539 95.4442C681.205 95.4442 679.389 96.5428 678.489 98.4502H678.397V89.9816H673.942V112H678.336V109.192H678.428C679.328 111.1 681.159 112.198 683.555 112.198ZM682.014 99.03C684.196 99.03 685.63 100.907 685.63 103.821C685.63 106.736 684.211 108.613 682.014 108.613C679.832 108.613 678.382 106.72 678.382 103.821C678.382 100.953 679.832 99.03 682.014 99.03ZM698.829 109.009C697.288 109.009 696.281 108.231 696.281 107.041C696.281 105.881 697.227 105.164 698.997 105.042L702.369 104.828V106.003C702.369 107.758 700.797 109.009 698.829 109.009ZM697.364 112.244C699.439 112.244 701.453 111.207 702.354 109.498H702.445V112H706.748V100.785C706.748 97.5194 703.971 95.3527 699.76 95.3527C695.609 95.3527 692.786 97.5042 692.664 100.663H696.723C696.921 99.4878 698.02 98.6791 699.561 98.6791C701.301 98.6791 702.369 99.5183 702.369 101.059V102.128L698.325 102.372C694.129 102.616 691.84 104.31 691.84 107.285C691.84 110.215 694.221 112.244 697.364 112.244ZM712.531 112.183C713.904 112.183 714.988 111.084 714.988 109.726C714.988 108.353 713.904 107.27 712.531 107.27C711.158 107.27 710.074 108.353 710.074 109.726C710.074 111.084 711.158 112.183 712.531 112.183Z" fill="white"/>
<rect x="1113" y="58" width="161" height="48" rx="7" stroke="white" strokeWidth="2"/>
<path d="M1135.37 85.4844H1130.12V75.7266H1128.37V87H1135.37V85.4844ZM1139.9 80.0469C1141.07 80.0469 1141.88 80.875 1141.91 82.1328H1137.8C1137.89 80.8906 1138.73 80.0469 1139.9 80.0469ZM1141.91 84.5859C1141.68 85.2969 1140.95 85.7422 1140.01 85.7422C1138.68 85.7422 1137.8 84.8203 1137.8 83.4141V83.3125H1143.6V82.7344C1143.6 80.2422 1142.17 78.6797 1139.9 78.6797C1137.59 78.6797 1136.09 80.3516 1136.09 82.9297C1136.09 85.5 1137.58 87.1016 1139.97 87.1016C1141.83 87.1016 1143.28 86.0781 1143.51 84.5859H1141.91ZM1148.35 80.0469C1149.52 80.0469 1150.33 80.875 1150.37 82.1328H1146.26C1146.34 80.8906 1147.19 80.0469 1148.35 80.0469ZM1150.36 84.5859C1150.13 85.2969 1149.4 85.7422 1148.46 85.7422C1147.13 85.7422 1146.25 84.8203 1146.25 83.4141V83.3125H1152.05V82.7344C1152.05 80.2422 1150.62 78.6797 1148.35 78.6797C1146.04 78.6797 1144.55 80.3516 1144.55 82.9297C1144.55 85.5 1146.03 87.1016 1148.42 87.1016C1150.28 87.1016 1151.73 86.0781 1151.96 84.5859H1150.36ZM1153.37 87H1155.05V82.125C1155.05 80.9688 1155.73 80.2344 1156.81 80.2344C1157.14 80.2344 1157.44 80.2812 1157.57 80.3359V78.7578C1157.44 78.7266 1157.23 78.6953 1156.99 78.6953C1156.02 78.6953 1155.27 79.25 1155.02 80.1797H1154.98V78.7812H1153.37V87ZM1161.87 87H1163.55V82.2656C1163.55 81 1164.29 80.1406 1165.5 80.1406C1166.69 80.1406 1167.26 80.8281 1167.26 82.0625V87H1168.95V81.7344C1168.95 79.8516 1167.91 78.6875 1166.1 78.6875C1164.84 78.6875 1164.01 79.1953 1163.52 80.1797H1163.48V78.7812H1161.87V87ZM1174.12 87.1016C1176.51 87.1016 1178.02 85.4844 1178.02 82.8906C1178.02 80.3047 1176.5 78.6797 1174.12 78.6797C1171.74 78.6797 1170.22 80.3047 1170.22 82.8906C1170.22 85.4844 1171.73 87.1016 1174.12 87.1016ZM1174.12 85.7109C1172.75 85.7109 1171.94 84.6719 1171.94 82.8906C1171.94 81.125 1172.75 80.0703 1174.12 80.0703C1175.48 80.0703 1176.3 81.1172 1176.3 82.8906C1176.3 84.6719 1175.48 85.7109 1174.12 85.7109ZM1179.81 76.8359V78.7812H1178.62V80.1172H1179.81V84.8281C1179.81 86.4219 1180.46 87.0469 1182.12 87.0469C1182.5 87.0469 1182.88 87.0156 1183.06 86.9688V85.6406C1182.95 85.6562 1182.68 85.6797 1182.51 85.6797C1181.82 85.6797 1181.51 85.3516 1181.51 84.6484V80.1172H1183.07V78.7812H1181.51V76.8359H1179.81ZM1187.27 85.7812C1186.34 85.7812 1185.73 85.2969 1185.73 84.6094C1185.73 83.8984 1186.31 83.4766 1187.41 83.4141L1189.38 83.2891V83.9219C1189.38 84.9844 1188.47 85.7812 1187.27 85.7812ZM1186.8 87.1172C1187.91 87.1172 1188.94 86.5312 1189.4 85.6484H1189.44V87H1191.05V81.3672C1191.05 79.7344 1189.75 78.6797 1187.73 78.6797C1185.87 78.6797 1184.49 79.75 1184.45 81.2188H1186.02C1186.16 80.5156 1186.8 80.0625 1187.69 80.0625C1188.76 80.0625 1189.38 80.5625 1189.38 81.4922V82.1172L1187.19 82.2422C1185.14 82.3672 1184.04 83.2109 1184.04 84.6484C1184.04 86.1094 1185.17 87.1172 1186.8 87.1172ZM1203 81.6094C1202.86 80.0078 1201.55 78.6797 1199.44 78.6797C1197.11 78.6797 1195.58 80.3359 1195.58 82.8906C1195.58 85.5 1197.11 87.1016 1199.45 87.1016C1201.45 87.1016 1202.83 85.9453 1203.02 84.2188H1201.39C1201.2 85.1719 1200.52 85.6953 1199.47 85.6953C1198.16 85.6953 1197.3 84.6406 1197.3 82.8906C1197.3 81.1797 1198.16 80.0938 1199.45 80.0938C1200.56 80.0938 1201.24 80.7422 1201.39 81.6094H1203ZM1207.74 87.1016C1210.13 87.1016 1211.64 85.4844 1211.64 82.8906C1211.64 80.3047 1210.12 78.6797 1207.74 78.6797C1205.37 78.6797 1203.84 80.3047 1203.84 82.8906C1203.84 85.4844 1205.35 87.1016 1207.74 87.1016ZM1207.74 85.7109C1206.38 85.7109 1205.56 84.6719 1205.56 82.8906C1205.56 81.125 1206.38 80.0703 1207.74 80.0703C1209.11 80.0703 1209.92 81.1172 1209.92 82.8906C1209.92 84.6719 1209.11 85.7109 1207.74 85.7109ZM1212.95 87H1214.63V81.9766C1214.63 80.9141 1215.34 80.1406 1216.34 80.1406C1217.3 80.1406 1217.9 80.7422 1217.9 81.6875V87H1219.55V81.9141C1219.55 80.875 1220.25 80.1406 1221.25 80.1406C1222.25 80.1406 1222.82 80.75 1222.82 81.8047V87H1224.52V81.4062C1224.52 79.7656 1223.45 78.6875 1221.83 78.6875C1220.66 78.6875 1219.69 79.2969 1219.27 80.2969H1219.23C1218.9 79.2734 1218.07 78.6875 1216.93 78.6875C1215.85 78.6875 1214.96 79.2578 1214.59 80.1875H1214.55V78.7812H1212.95V87ZM1230.43 78.6953C1229.28 78.6953 1228.28 79.2656 1227.81 80.1484H1227.78V78.7812H1226.15V89.7188H1227.84V85.6484H1227.88C1228.36 86.5625 1229.29 87.0859 1230.46 87.0859C1232.52 87.0859 1233.89 85.4453 1233.89 82.8906C1233.89 80.3438 1232.52 78.6953 1230.43 78.6953ZM1229.98 85.6562C1228.7 85.6562 1227.83 84.5469 1227.83 82.8906C1227.83 81.25 1228.7 80.1328 1229.98 80.1328C1231.3 80.1328 1232.16 81.2266 1232.16 82.8906C1232.16 84.5703 1231.3 85.6562 1229.98 85.6562ZM1235.26 87H1236.95V75.7266H1235.26V87ZM1242.12 80.0469C1243.29 80.0469 1244.09 80.875 1244.13 82.1328H1240.02C1240.11 80.8906 1240.95 80.0469 1242.12 80.0469ZM1244.12 84.5859C1243.9 85.2969 1243.16 85.7422 1242.23 85.7422C1240.9 85.7422 1240.02 84.8203 1240.02 83.4141V83.3125H1245.82V82.7344C1245.82 80.2422 1244.39 78.6797 1242.12 78.6797C1239.8 78.6797 1238.31 80.3516 1238.31 82.9297C1238.31 85.5 1239.8 87.1016 1242.19 87.1016C1244.05 87.1016 1245.5 86.0781 1245.73 84.5859H1244.12ZM1247.62 76.8359V78.7812H1246.43V80.1172H1247.62V84.8281C1247.62 86.4219 1248.27 87.0469 1249.94 87.0469C1250.31 87.0469 1250.69 87.0156 1250.88 86.9688V85.6406C1250.77 85.6562 1250.49 85.6797 1250.32 85.6797C1249.63 85.6797 1249.32 85.3516 1249.32 84.6484V80.1172H1250.88V78.7812H1249.32V76.8359H1247.62ZM1255.09 85.7812C1254.15 85.7812 1253.55 85.2969 1253.55 84.6094C1253.55 83.8984 1254.12 83.4766 1255.22 83.4141L1257.19 83.2891V83.9219C1257.19 84.9844 1256.28 85.7812 1255.09 85.7812ZM1254.62 87.1172C1255.73 87.1172 1256.75 86.5312 1257.21 85.6484H1257.25V87H1258.87V81.3672C1258.87 79.7344 1257.56 78.6797 1255.55 78.6797C1253.68 78.6797 1252.3 79.75 1252.26 81.2188H1253.84C1253.97 80.5156 1254.62 80.0625 1255.5 80.0625C1256.57 80.0625 1257.19 80.5625 1257.19 81.4922V82.1172L1255 82.2422C1252.95 82.3672 1251.85 83.2109 1251.85 84.6484C1251.85 86.1094 1252.98 87.1172 1254.62 87.1172Z" fill="white"/>
<defs>
<filter id="filter0_f_1_442" x="-112" y="-218" width="1224" height="883" filterUnits="userSpaceOnUse" color-interpolation-filters="sRGB">
<feFlood flood-opacity="0" result="BackgroundImageFix"/>
<feBlend mode="normal" in="SourceGraphic" in2="BackgroundImageFix" result="shape"/>
<feGaussianBlur stdDeviation="150" result="effect1_foregroundBlur_1_442"/>
</filter>
<filter id="filter1_f_1_442" x="470" y="-379" width="1297" height="1160" filterUnits="userSpaceOnUse" color-interpolation-filters="sRGB">
<feFlood flood-opacity="0" result="BackgroundImageFix"/>
<feBlend mode="normal" in="SourceGraphic" in2="BackgroundImageFix" result="shape"/>
<feGaussianBlur stdDeviation="200" result="effect1_foregroundBlur_1_442"/>
</filter>
</defs>
</svg>
